<svg width="1548" height="871" viewBox="0 0 1548 871" fill="none" xmlns="http://www.w3.org/2000/svg">
<mask id="mask0_52_138" style="mask-type:alpha" maskUnits="userSpaceOnUse" x="0" y="0" width="1548" height="871">
<rect width="1548" height="870.75" fill="#C4C4C4"/>
<rect x="0.5" y="0.5" width="1547" height="869.75" stroke="#3B6064" stroke-opacity="0.4"/>
</mask>
<g mask="url(#mask0_52_138)">
<g opacity="0.15">
<path d="M200.204 -340.137L200.748 -301.349C204.687 -20.5223 508.417 153.144 752.434 14.0937L787.502 -5.88968C1016.86 -136.588 1302.11 27.9002 1303.88 291.879L1304.5 384.196C1305.78 575.195 1494.2 708.517 1674.74 646.165V646.165" stroke="#3B6064" stroke-opacity="0.4" stroke-width="0.653416"/>
<path d="M187.329 -317.838L187.873 -279.051C191.812 1.77595 495.543 175.443 739.559 36.392L774.628 16.4085C1003.99 -114.29 1289.23 50.1984 1291 314.177L1291.62 406.495C1292.9 597.493 1481.33 730.815 1661.87 668.463V668.463" stroke="#3B6064" stroke-opacity="0.4" stroke-width="0.653416"/>
<path d="M174.457 -295.54L175.001 -256.753C178.94 24.0741 482.671 197.741 726.687 58.6901L761.756 38.7067C991.115 -91.9918 1276.36 72.4966 1278.13 336.475L1278.75 428.793C1280.03 619.791 1468.46 753.113 1648.99 690.761V690.761" stroke="#3B6064" stroke-opacity="0.4" stroke-width="0.653416"/>
<path d="M161.582 -273.242L162.126 -234.455C166.065 46.3718 469.795 220.039 713.812 80.9878L748.88 61.0044C978.239 -69.6941 1263.49 94.7943 1265.26 358.773L1265.87 451.09C1267.15 642.089 1455.58 775.411 1636.12 713.059V713.059" stroke="#3B6064" stroke-opacity="0.4" stroke-width="0.653416"/>
<path d="M148.709 -250.945L149.253 -212.157C153.192 68.6693 456.923 242.336 700.939 103.285L736.008 83.3019C965.367 -47.3966 1250.61 117.092 1252.38 381.07L1253 473.388C1254.28 664.387 1442.71 797.708 1623.25 735.356V735.356" stroke="#3B6064" stroke-opacity="0.4" stroke-width="0.653416"/>
<path d="M135.833 -228.646L136.377 -189.859C140.316 90.9678 444.047 264.635 688.063 125.584L723.132 105.6C952.491 -25.0981 1237.74 139.39 1239.51 403.369L1240.13 495.686C1241.41 686.685 1429.83 820.007 1610.37 757.655V757.655" stroke="#3B6064" stroke-opacity="0.4" stroke-width="0.653416"/>
<path d="M122.961 -206.348L123.505 -167.561C127.444 113.266 431.175 286.933 675.191 147.882L710.26 127.899C939.619 -2.79986 1224.87 161.689 1226.64 425.667L1227.25 517.985C1228.53 708.983 1416.96 842.305 1597.5 779.953V779.953" stroke="#3B6064" stroke-opacity="0.4" stroke-width="0.653416"/>
<path d="M110.088 -184.051L110.632 -145.263C114.571 135.564 418.302 309.23 662.318 170.18L697.386 150.196C926.746 19.4976 1211.99 183.986 1213.76 447.965L1214.38 540.282C1215.66 731.281 1404.09 864.603 1584.63 802.251V802.251" stroke="#3B6064" stroke-opacity="0.4" stroke-width="0.653416"/>
<path d="M97.2129 -161.752L97.757 -122.965C101.696 157.862 405.427 331.529 649.443 192.478L684.511 172.494C913.871 41.796 1199.12 206.284 1200.89 470.263L1201.51 562.58C1202.79 753.579 1391.21 886.901 1571.75 824.549V824.549" stroke="#3B6064" stroke-opacity="0.4" stroke-width="0.653416"/>
<path d="M84.3408 -139.455L84.8849 -100.667C88.8241 180.16 392.555 353.826 636.571 214.776L671.639 194.792C900.999 64.0937 1186.25 228.582 1188.01 492.561L1188.63 584.878C1189.91 775.877 1378.34 909.199 1558.88 846.847V846.847" stroke="#3B6064" stroke-opacity="0.4" stroke-width="0.653416"/>
<path d="M71.4648 -117.157L72.0089 -78.3694C75.9482 202.457 379.679 376.124 623.695 237.073L658.763 217.09C888.123 86.3913 1173.37 250.88 1175.14 514.858L1175.76 607.176C1177.04 798.175 1365.46 931.496 1546 869.144V869.144" stroke="#3B6064" stroke-opacity="0.4" stroke-width="0.653416"/>
<path d="M58.5928 -94.8591L59.1369 -56.0714C63.0761 224.755 366.807 398.422 610.823 259.371L645.891 239.388C875.251 108.689 1160.5 273.178 1162.27 537.156L1162.89 629.474C1164.16 820.473 1352.59 953.794 1533.13 891.442V891.442" stroke="#3B6064" stroke-opacity="0.4" stroke-width="0.653416"/>
<path d="M45.7202 -72.5616L46.2643 -33.774C50.2035 247.053 353.934 420.719 597.95 281.669L633.019 261.685C862.378 130.987 1147.63 295.475 1149.39 559.454L1150.01 651.771C1151.29 842.77 1339.72 976.092 1520.26 913.74V913.74" stroke="#3B6064" stroke-opacity="0.4" stroke-width="0.653416"/>
<path d="M32.8452 -50.2633L33.3893 -11.4756C37.3285 269.351 341.059 443.018 585.075 303.967L620.144 283.984C849.503 153.285 1134.75 317.773 1136.52 581.752L1137.14 674.07C1138.42 865.068 1326.84 998.39 1507.38 936.038V936.038" stroke="#3B6064" stroke-opacity="0.4" stroke-width="0.653416"/>
<path d="M19.9717 -27.965L20.5158 10.8227C24.455 291.649 328.185 465.316 572.202 326.265L607.27 306.282C836.63 175.583 1121.88 340.072 1123.65 604.05L1124.26 696.368C1125.54 887.367 1313.97 1020.69 1494.51 958.336V958.336" stroke="#3B6064" stroke-opacity="0.4" stroke-width="0.653416"/>
<path d="M7.40282 -6.19488L7.94691 32.5928C11.8861 313.419 315.617 487.086 559.633 348.035L594.701 328.052C824.061 197.354 1109.31 361.842 1111.08 625.82L1111.7 718.138C1112.98 909.137 1301.4 1042.46 1481.94 980.106V980.106" stroke="#3B6064" stroke-opacity="0.4" stroke-width="0.653416"/>
<path d="M-5.16651 15.5752L-4.62243 54.3629C-0.683193 335.19 303.047 508.856 547.064 369.806L582.132 349.822C811.491 219.124 1096.74 383.612 1098.51 647.591L1099.13 739.908C1100.41 930.907 1288.83 1064.23 1469.37 1001.88V1001.88" stroke="#3B6064" stroke-opacity="0.4" stroke-width="0.653416"/>
<path d="M-17.7358 37.3455L-17.1918 76.1332C-13.2525 356.96 290.478 530.627 534.494 391.576L569.563 371.592C798.922 240.894 1084.17 405.382 1085.94 669.361L1086.56 761.678C1087.84 952.677 1276.26 1086 1456.8 1023.65V1023.65" stroke="#3B6064" stroke-opacity="0.4" stroke-width="0.653416"/>
<path d="M-30.3042 59.1155L-29.7601 97.9032C-25.8209 378.73 277.91 552.397 521.926 413.346L556.994 393.362C786.354 262.664 1071.6 427.152 1073.37 691.131L1073.99 783.448C1075.27 974.447 1263.69 1107.77 1444.23 1045.42V1045.42" stroke="#3B6064" stroke-opacity="0.4" stroke-width="0.653416"/>
<path d="M-42.8735 80.8855L-42.3295 119.673C-38.3902 400.5 265.34 574.167 509.357 435.116L544.425 415.132C773.784 284.434 1059.03 448.922 1060.8 712.901L1061.42 805.218C1062.7 996.217 1251.12 1129.54 1431.66 1067.19V1067.19" stroke="#3B6064" stroke-opacity="0.4" stroke-width="0.653416"/>
<path d="M-55.4419 102.656L-54.8978 141.443C-50.9586 422.27 252.772 595.937 496.788 456.886L531.857 436.903C761.216 306.204 1046.46 470.693 1048.23 734.671L1048.85 826.989C1050.13 1017.99 1238.56 1151.31 1419.1 1088.96V1088.96" stroke="#3B6064" stroke-opacity="0.4" stroke-width="0.653416"/>
<path d="M-68.0112 124.426L-67.4672 163.213C-63.5279 444.04 240.203 617.707 484.219 478.656L519.287 458.673C748.647 327.974 1033.89 492.463 1035.66 756.441L1036.28 848.759C1037.56 1039.76 1225.99 1173.08 1406.53 1110.73V1110.73" stroke="#3B6064" stroke-opacity="0.4" stroke-width="0.653416"/>
<path d="M-80.5806 146.196L-80.0365 184.984C-76.0973 465.81 227.633 639.477 471.65 500.426L506.718 480.443C736.077 349.744 1021.33 514.233 1023.09 778.211L1023.71 870.529C1024.99 1061.53 1213.42 1194.85 1393.96 1132.5V1132.5" stroke="#3B6064" stroke-opacity="0.4" stroke-width="0.653416"/>
<path d="M-93.1494 167.966L-92.6053 206.754C-88.6661 487.581 215.064 661.247 459.081 522.197L494.149 502.213C723.508 371.515 1008.76 536.003 1010.52 799.982L1011.14 892.299C1012.42 1083.3 1200.85 1216.62 1381.39 1154.27V1154.27" stroke="#3B6064" stroke-opacity="0.4" stroke-width="0.653416"/>
<path d="M-105.719 189.736L-105.175 228.524C-101.235 509.35 202.495 683.017 446.511 543.966L481.58 523.983C710.939 393.285 996.187 557.773 997.955 821.751L998.574 914.069C999.853 1105.07 1188.28 1238.39 1368.82 1176.04V1176.04" stroke="#3B6064" stroke-opacity="0.4" stroke-width="0.653416"/>
<path d="M-118.287 211.506L-117.743 250.294C-113.804 531.121 189.927 704.788 433.943 565.737L469.011 545.753C698.371 415.055 983.619 579.543 985.387 843.522L986.006 935.839C987.285 1126.84 1175.71 1260.16 1356.25 1197.81V1197.81" stroke="#3B6064" stroke-opacity="0.4" stroke-width="0.653416"/>
<path d="M-130.856 233.277L-130.312 272.064C-126.373 552.891 177.357 726.558 421.374 587.507L456.442 567.524C685.801 436.825 971.049 601.313 972.818 865.292L973.436 957.61C974.716 1148.61 1163.14 1281.93 1343.68 1219.58V1219.58" stroke="#3B6064" stroke-opacity="0.4" stroke-width="0.653416"/>
<path d="M-143.426 255.047L-142.882 293.834C-138.942 574.661 164.788 748.328 408.804 609.277L443.873 589.294C673.232 458.595 958.48 623.084 960.248 887.062L960.867 979.38C962.146 1170.38 1150.57 1303.7 1331.11 1241.35V1241.35" stroke="#3B6064" stroke-opacity="0.4" stroke-width="0.653416"/>
<path d="M-155.994 276.817L-155.45 315.605C-151.511 596.431 152.22 770.098 396.236 631.047L431.304 611.064C660.664 480.365 945.912 644.854 947.68 908.832L948.299 1001.15C949.578 1192.15 1138 1325.47 1318.54 1263.12V1263.12" stroke="#3B6064" stroke-opacity="0.4" stroke-width="0.653416"/>
</g>
</g>
</svg>
